<?xml version="1.0" encoding="UTF-8" standalone="no"?>
<svg width="150px" height="33px" viewBox="0 0 150 33" version="1.1" xmlns="http://www.w3.org/2000/svg" xmlns:xlink="http://www.w3.org/1999/xlink" xmlns:sketch="http://www.bohemiancoding.com/sketch/ns">
    <!-- Generator: Sketch 3.1.1 (8761) - http://www.bohemiancoding.com/sketch -->
    <title>project + the + mic 3</title>
    <desc>Created with Sketch.</desc>
    <defs></defs>
    <g id="Page-2" stroke="none" stroke-width="1" fill="none" fill-rule="evenodd" sketch:type="MSPage">
        <g id="Artboard-4" sketch:type="MSArtboardGroup" transform="translate(-266.000000, -26.000000)" fill="#FFFFFF">
            <g id="project-+-the-+-mic-3" sketch:type="MSLayerGroup" transform="translate(267.000000, 27.000000)">
                <text id="project" sketch:type="MSTextLayer" font-family="Avenir Next" font-size="24" font-weight="normal">
                    <tspan x="71" y="26">project</tspan>
                </text>
                <text id="the" sketch:type="MSTextLayer" font-family="Avenir Next" font-size="24" font-weight="normal">
                    <tspan x="-0.5" y="26">the</tspan>
                </text>
                <g id="mic-3" transform="translate(45.000000, -0.500000)" sketch:type="MSShapeGroup">
                    <path d="M8.70833912,18.3217332 C11.2839275,18.3217332 13.372605,16.2757581 13.372605,13.7511616 L13.372605,4.5705716 C13.3723068,2.04685168 11.2836293,0 8.70833912,0 C6.13215443,0 4.04437142,2.04685168 4.04437142,4.5705716 L4.04437142,13.7511616 C4.04407326,16.2757581 6.13185626,18.3217332 8.70833912,18.3217332 L8.70833912,18.3217332 Z" id="Shape"></path>
                    <path d="M15.546559,11.8930703 L15.546559,13.7572978 C15.546559,17.4530266 12.4792891,20.4588743 8.70804095,20.4588743 C4.93679281,20.4588743 1.86952292,17.4530266 1.86952292,13.7572978 L1.86952292,11.8930703 L0,11.8930703 L0,13.7572978 C0,18.1534268 3.40956851,21.7825343 7.77327949,22.2412862 L7.77327949,25.6342971 L2.63015337,25.6342971 L2.63015337,27.466675 L14.7865249,27.466675 L14.7865249,25.6342971 L9.64310058,25.6342971 L9.64310058,22.2412862 C14.0068116,21.7828265 17.4163801,18.153719 17.4163801,13.7572978 L17.4163801,11.8930703 L15.546559,11.8930703 L15.546559,11.8930703 Z" id="Shape"></path>
                </g>
            </g>
        </g>
    </g>
</svg>